<?xml version="1.0" encoding="utf-8"?>
<!-- Generator: Adobe Illustrator 28.0.0, SVG Export Plug-In . SVG Version: 6.00 Build 0)  -->
<svg version="1.1" id="Layer_1" xmlns="http://www.w3.org/2000/svg" xmlns:xlink="http://www.w3.org/1999/xlink" x="0px" y="0px"
	 viewBox="0 0 385.8 385.8" style="enable-background:new 0 0 385.8 385.8;" xml:space="preserve">
<path d="M379.6,219c-6.9,8.2-14.1,16.2-21.1,24.3c-2.3,2.7-5,5.3-6.3,8.4C324.5,325,251.8,369.5,174,360.8
	c-90.6-10-158.2-93.3-148.4-184c7.1-65.5,41.8-112.2,101.8-138.9c17.9-7.9,34.8-16.8,50.7-27.8c3.2-2.2,6.6-4,9.7-6.5
	c3.1-2.5,5.4-2.2,8.5,0.1c9.2,6.7,18.5,13.5,28.1,19.7c4,2.7,8.5,4.9,13.2,6.3c66.8,20.6,108.1,65,121.8,133.3
	c5,24.7-5.8,44.7-28.4,57.3c-3.8,2.1-8.9,1.6-13.5,2.3c-0.5-4.3-1.9-8.8-1.6-12.9c0.9-8.9,3.8-17.7,4.1-26.8
	c0.4-8.7,0-17.7-2.6-25.9c-3.1-10.1-13.3-13.2-22.7-7.9c-4.1,2.3-8.5,6.1-10.4,10.2c-5.7,12.9-10.7,26.3-15.3,39.6
	c-4.8,14.2-8.2,29-13.2,43.1c-1.7,4.7-5.6,9.5-9.6,12.3c-5.6,3.9-10.7,0.9-11.3-6.1c-0.4-5.6-0.5-11.4,0.8-16.7
	c8.7-36.4,17.9-72.8,26.8-109.1c0.5-2.1,0.9-4.3,0.9-6.3c0.1-8.2-5.2-13.7-13.2-14.5c-8.2-0.8-14,2.8-19.3,9.5
	c-10.6-14.1-24.7-19.8-41.2-16.6c-10.6,2.1-21.6,5.3-30.7,10.9c-27.6,16.8-44,42.5-53.3,73c-4.9,16.2-6.3,32.5-2.6,49.2
	c10,44.1,53.2,60.1,89.2,32.5c3.8-2.8,7.2-6.1,10.9-9.1c0.4,0.3,0.5,0.3,0.6,0.4c0.9,1.4,1.9,2.8,2.8,4.3
	c8.7,13.1,21.2,18.6,36.5,17.7c14.4-0.8,23.2-9.2,28.2-22.1c1.2-3,2.7-6,3.6-8.9c5.2-16.8,9.8-33.9,15.3-50.6
	c2.5-7.8,6.2-15,9.5-22.5c0.6,0.3,1.3,0.4,1.9,0.6c0,2.3,0.3,4.5,0,6.9c-1.6,10.6-3.2,21.2-4.9,31.8c-3.1,18.8,4.9,32.2,21.2,33.4
	c6.3,0.4,13.6-1,19.3-3.9c36.1-18.1,44.4-54.4,43.1-89.8C357.6,50.7,260.1-18.2,153.5,4.3C50.1,26.2-14.7,123.1,3.3,227
	c19.1,107.8,127.2,178.8,233.6,153.8c79.1-18.6,140.6-86,148.5-171.9C383.1,213.3,381.8,216.4,379.6,219z M221.8,146.6
	c-5.8,23.6-11.3,47.3-17.6,70.7c-1.6,6-5.4,11.7-9.5,16.4c-8,9.6-17.1,18.4-30,21.4c-12.9,3-20.2-0.8-24.2-13.6
	c-1.7-5.4-2.1-11.4-3-16.4c3.5-29.8,9.5-58.1,23.4-84c4.1-7.8,10.5-14.8,17-21c9.2-9.1,21.9-10.7,30.8-5.3
	C218.2,120.3,224.5,135.9,221.8,146.6z"/>
</svg>
